<svg width="379" height="430" viewBox="0 0 379 430" fill="none" xmlns="http://www.w3.org/2000/svg">
<path opacity="0.24" d="M73.6489 58.5598C57.3489 65.5598 41.649 75.3498 31.559 89.9498C23.559 101.52 19.649 115.34 15.979 128.95C8.83895 155.39 2.14895 183.14 8.06895 209.88C12.3989 229.44 23.3789 247.88 22.6189 267.88C21.5289 296.75 -3.84105 322.08 0.498948 350.63C4.63895 377.89 33.2089 393.41 58.6589 404.01C85.1989 415.07 112.399 425.48 140.949 428.86C169.499 432.24 199.869 427.97 223.569 411.7C246.509 395.95 261.129 370.54 270.569 344.36C280.009 318.18 284.959 290.62 293.089 264.01C296.839 251.73 301.349 239.51 308.679 229.01C316.329 218.01 326.679 209.32 336.009 199.7C349.452 185.769 360.645 169.832 369.189 152.46C374.929 140.79 379.509 128.05 378.649 115.07C376.809 87.4498 351.719 67.4498 327.069 54.9998C245.879 13.9398 155.529 23.3498 73.6489 58.5598Z" fill="#4DD783"/>
<path d="M92.4787 142.45C87.5101 144.861 83.658 149.089 81.7188 154.26L91.0987 156.88C91.7087 157.092 92.3539 157.183 92.9987 157.15C93.9721 156.903 94.8561 156.387 95.5488 155.66C102.399 149.87 111.389 147.46 120.019 145.02C130.019 142.18 130.769 135.02 119.479 137.69C110.649 139.74 100.759 138.45 92.4787 142.45Z" fill="#4DD783"/>
<path d="M121.129 131.73C112.559 142.92 106.129 155.55 99.7089 168.11C97.4672 172.253 95.5385 176.559 93.9389 180.99C90.2489 192.11 89.8889 205.99 90.5489 217.66C90.6589 219.53 91.8589 219.82 93.3389 220.96C95.2489 222.45 98.2289 221.32 99.6089 219.33C100.989 217.34 101.239 214.81 101.609 212.41C102.787 204.813 105.55 197.549 109.719 191.09C110.979 189.15 112.389 187.22 112.929 184.97C113.419 182.97 117.239 171.36 117.039 169.29C115.739 155.51 113.219 150.94 117.509 137.78" fill="white"/>
<path d="M121.129 131.73C112.559 142.92 106.129 155.55 99.7089 168.11C97.4672 172.253 95.5385 176.559 93.9389 180.99C90.2489 192.11 89.8889 205.99 90.5489 217.66C90.6589 219.53 91.8589 219.82 93.3389 220.96C95.2489 222.45 98.2289 221.32 99.6089 219.33C100.989 217.34 101.239 214.81 101.609 212.41C102.787 204.813 105.55 197.549 109.719 191.09C110.979 189.15 112.389 187.22 112.929 184.97C113.419 182.97 117.239 171.36 117.039 169.29C115.739 155.51 113.219 150.94 117.509 137.78" fill="url(#paint0_linear_1137_1961)"/>
<path d="M76.6292 235.87C74.0598 236.919 71.7397 238.497 69.8192 240.5C67.2992 243.43 66.4892 247.42 65.9592 251.24C65.3081 255.834 64.9208 260.462 64.7992 265.1C64.7092 268.65 64.8592 272.49 67.0592 275.27C69.0592 277.79 72.3892 278.94 75.5992 279C78.8115 278.908 81.9925 278.342 85.0392 277.32L110.039 270.32C112.789 269.55 115.789 268.6 117.299 266.18C118.459 264.32 118.489 262 118.469 259.82C118.399 251.99 118.599 246.23 117.769 238.45C117.269 233.75 114.069 228.59 109.159 227.62C98.9792 225.59 85.4792 231.69 76.6292 235.87Z" fill="#606161"/>
<path d="M83.2189 241.83C81.0642 242.687 79.1124 243.985 77.4889 245.64C75.3689 248.05 74.6889 251.34 74.2389 254.49C73.6856 258.271 73.3518 262.081 73.2389 265.9C73.1589 268.82 73.2889 271.98 75.1489 274.27C76.0545 275.268 77.1648 276.059 78.4039 276.589C79.6429 277.119 80.9817 277.375 82.3289 277.34C85.0482 277.269 87.7428 276.804 90.3289 275.96L111.389 270.16C113.699 269.53 116.219 268.74 117.499 266.75C118.499 265.22 118.499 263.31 118.499 261.51C118.439 255.07 118.819 248.34 118.119 241.94C117.699 238.07 116.349 235.29 112.209 234.5C103.599 232.86 90.6789 238.39 83.2189 241.83Z" fill="#606161"/>
<path d="M83.2189 241.83C81.0642 242.687 79.1124 243.985 77.4889 245.64C75.3689 248.05 74.6889 251.34 74.2389 254.49C73.6856 258.271 73.3518 262.081 73.2389 265.9C73.1589 268.82 73.2889 271.98 75.1489 274.27C76.0545 275.268 77.1648 276.059 78.4039 276.589C79.6429 277.119 80.9817 277.375 82.3289 277.34C85.0482 277.269 87.7428 276.804 90.3289 275.96L111.389 270.16C113.699 269.53 116.219 268.74 117.499 266.75C118.499 265.22 118.499 263.31 118.499 261.51C118.439 255.07 118.819 248.34 118.119 241.94C117.699 238.07 116.349 235.29 112.209 234.5C103.599 232.86 90.6789 238.39 83.2189 241.83Z" fill="url(#paint1_linear_1137_1961)"/>
<path d="M201.569 0V22.17H167.709V0H162.479V429.69H167.719V410.97H201.579V421.16H206.819V0H201.569ZM201.569 27.42V44.74H167.709V27.45L201.569 27.42ZM167.709 360.61V343.29H201.569V360.61H167.709ZM201.569 365.85V383.17H167.709V365.85H201.569ZM167.709 338.04V320.72H201.569V338.04H167.709ZM167.709 315.48V298.16H201.569V315.45L167.709 315.48ZM167.709 292.92V275.6H201.569V292.92H167.709ZM167.709 270.36V253.04H201.569V270.36H167.709ZM167.709 247.8V230.45H201.569V247.78L167.709 247.8ZM167.709 225.23V207.91H201.569V225.23H167.709ZM167.709 202.67V185.35H201.569V202.67H167.709ZM167.709 180.11V162.79H201.569V180.11H167.709ZM167.709 157.55V140.23H201.569V157.55H167.709ZM167.709 134.99V117.66H201.569V134.99H167.709ZM167.709 112.42V95.1H201.569V112.45L167.709 112.42ZM167.709 89.86V72.54H201.569V89.86H167.709ZM167.709 67.3V49.98H201.569V67.3H167.709ZM167.709 405.73V388.45H201.569V405.77L167.709 405.73Z" fill="#68E1FD"/>
<path d="M201.569 0V22.17H167.709V0H162.479V429.69H167.719V410.97H201.579V421.16H206.819V0H201.569ZM201.569 27.42V44.74H167.709V27.45L201.569 27.42ZM167.709 360.61V343.29H201.569V360.61H167.709ZM201.569 365.85V383.17H167.709V365.85H201.569ZM167.709 338.04V320.72H201.569V338.04H167.709ZM167.709 315.48V298.16H201.569V315.45L167.709 315.48ZM167.709 292.92V275.6H201.569V292.92H167.709ZM167.709 270.36V253.04H201.569V270.36H167.709ZM167.709 247.8V230.45H201.569V247.78L167.709 247.8ZM167.709 225.23V207.91H201.569V225.23H167.709ZM167.709 202.67V185.35H201.569V202.67H167.709ZM167.709 180.11V162.79H201.569V180.11H167.709ZM167.709 157.55V140.23H201.569V157.55H167.709ZM167.709 134.99V117.66H201.569V134.99H167.709ZM167.709 112.42V95.1H201.569V112.45L167.709 112.42ZM167.709 89.86V72.54H201.569V89.86H167.709ZM167.709 67.3V49.98H201.569V67.3H167.709ZM167.709 405.73V388.45H201.569V405.77L167.709 405.73Z" fill="url(#paint2_linear_1137_1961)"/>
<path d="M156.589 323.11C156.969 323.283 157.382 323.368 157.799 323.36C165.204 323.753 172.546 321.823 178.799 317.84C180.509 316.74 182.329 314.93 181.729 312.99C179.73 311.986 177.55 311.391 175.317 311.242C173.085 311.093 170.845 311.391 168.729 312.12C168.381 312.289 167.984 312.328 167.609 312.23C167.367 312.097 167.176 311.886 167.069 311.63C165.759 308.91 167.319 306.1 163.389 305.95C161.22 305.997 159.142 306.836 157.549 308.31C155.199 310.69 153.349 321.36 156.589 323.11Z" fill="#606161"/>
<path d="M156.589 323.11C156.969 323.283 157.382 323.368 157.799 323.36C165.204 323.753 172.546 321.823 178.799 317.84C180.509 316.74 182.329 314.93 181.729 312.99C179.73 311.986 177.55 311.391 175.317 311.242C173.085 311.093 170.845 311.391 168.729 312.12C168.381 312.289 167.984 312.328 167.609 312.23C167.367 312.097 167.176 311.886 167.069 311.63C165.759 308.91 167.319 306.1 163.389 305.95C161.22 305.997 159.142 306.836 157.549 308.31C155.199 310.69 153.349 321.36 156.589 323.11Z" fill="url(#paint3_linear_1137_1961)"/>
<path d="M163.679 276.08C163.295 276.16 162.897 276.142 162.521 276.028C162.146 275.915 161.805 275.709 161.529 275.43C161.29 274.972 161.212 274.447 161.309 273.94C161.566 270.705 162.122 267.502 162.969 264.37C163.06 263.855 163.288 263.375 163.629 262.98C163.98 262.683 164.394 262.471 164.839 262.36L171.089 260.26C171.209 261.32 171.349 262.38 171.539 263.43C171.565 263.832 171.715 264.217 171.969 264.53C172.293 264.798 172.69 264.962 173.109 265C174.922 265.36 176.719 265.793 178.499 266.3C179.866 266.626 181.163 267.195 182.329 267.98C187.619 271.98 181.329 272.19 178.619 273.07C173.787 274.704 168.767 275.716 163.679 276.08Z" fill="#606161"/>
<path d="M163.679 276.08C163.295 276.16 162.897 276.142 162.521 276.028C162.146 275.915 161.805 275.709 161.529 275.43C161.29 274.972 161.212 274.447 161.309 273.94C161.566 270.705 162.122 267.502 162.969 264.37C163.06 263.855 163.288 263.375 163.629 262.98C163.98 262.683 164.394 262.471 164.839 262.36L171.089 260.26C171.209 261.32 171.349 262.38 171.539 263.43C171.565 263.832 171.715 264.217 171.969 264.53C172.293 264.798 172.69 264.962 173.109 265C174.922 265.36 176.719 265.793 178.499 266.3C179.866 266.626 181.163 267.195 182.329 267.98C187.619 271.98 181.329 272.19 178.619 273.07C173.787 274.704 168.767 275.716 163.679 276.08Z" fill="url(#paint4_linear_1137_1961)"/>
<path d="M153.189 107.37C153.339 108.71 152.499 109.93 151.949 111.16C150.889 113.5 150.819 116.16 150.299 118.65C149.779 121.14 148.559 123.79 146.199 124.8C144.269 125.62 141.499 125.51 140.769 127.48C140.309 128.75 141.079 130.22 140.599 131.48C140.009 133.05 137.939 133.36 136.259 133.25C133.919 133.1 131.439 132.53 129.799 130.86C128.607 129.463 127.78 127.794 127.389 126C125.484 119.456 124.475 112.685 124.389 105.87C124.339 102.58 124.559 99.12 126.309 96.32C130.099 90.26 139.049 89.96 145.029 92.63C146.08 93.068 147.006 93.7593 147.725 94.6422C148.444 95.5251 148.933 96.5721 149.149 97.69C149.609 99.4 149.549 101.21 150.349 102.83C151.149 104.45 152.969 105.52 153.189 107.37Z" fill="#F4A982"/>
<path d="M147.639 97.4502C146.439 99.5402 144.879 101.45 143.709 103.45C142.17 106.207 141.319 109.294 141.229 112.45C140.899 112.8 140.229 112.56 139.989 112.16C139.749 111.76 139.599 111.26 139.309 110.88C138.309 109.54 135.899 110.88 135.839 112.6C135.779 114.32 137.029 115.68 138.209 116.88C135.539 118.88 136.919 123.5 134.809 126.1C132.699 128.7 128.519 127.83 125.329 126.68C124.336 126.425 123.432 125.898 122.719 125.16C122.256 124.482 121.945 123.711 121.809 122.9L118.809 110.43C117.759 106.07 116.719 101.43 118.149 97.1802C119.579 92.9302 123.349 89.7502 126.919 86.9002C128.415 85.4987 130.221 84.4707 132.189 83.9002C135.019 83.3002 137.679 84.5902 140.369 85.2402C142.069 85.6502 144.169 85.5302 145.779 86.1802C150.419 88.1002 149.699 93.8902 147.639 97.4502Z" fill="#606161"/>
<path d="M147.639 97.4502C146.439 99.5402 144.879 101.45 143.709 103.45C142.17 106.207 141.319 109.294 141.229 112.45C140.899 112.8 140.229 112.56 139.989 112.16C139.749 111.76 139.599 111.26 139.309 110.88C138.309 109.54 135.899 110.88 135.839 112.6C135.779 114.32 137.029 115.68 138.209 116.88C135.539 118.88 136.919 123.5 134.809 126.1C132.699 128.7 128.519 127.83 125.329 126.68C124.336 126.425 123.432 125.898 122.719 125.16C122.256 124.482 121.945 123.711 121.809 122.9L118.809 110.43C117.759 106.07 116.719 101.43 118.149 97.1802C119.579 92.9302 123.349 89.7502 126.919 86.9002C128.415 85.4987 130.221 84.4707 132.189 83.9002C135.019 83.3002 137.679 84.5902 140.369 85.2402C142.069 85.6502 144.169 85.5302 145.779 86.1802C150.419 88.1002 149.699 93.8902 147.639 97.4502Z" fill="url(#paint5_linear_1137_1961)"/>
<path d="M178.809 141.45C178.709 139.45 178.379 137.38 179.329 135.67C180.709 133.21 184.249 132.74 186.799 133.92C187.623 134.256 188.355 134.783 188.936 135.458C189.517 136.132 189.929 136.935 190.139 137.8C190.29 139.238 189.936 140.684 189.139 141.89C188.419 143.13 187.499 144.25 186.809 145.5C185.629 147.65 183.239 154.35 179.469 151.77C176.769 149.93 178.939 144.07 178.809 141.45Z" fill="#F4A982"/>
<path d="M181.399 220.98C182.357 223.454 182.67 226.132 182.309 228.76C181.539 238.4 177.909 247.55 174.309 256.54C173.903 257.69 173.345 258.78 172.649 259.78C170.109 263.03 165.319 263.14 161.199 262.95L160.909 244.59C161.013 242.621 160.703 240.652 159.999 238.81C159.004 236.934 157.468 235.401 155.589 234.41C151.369 231.93 146.339 230.99 142.309 228.21C137.239 224.71 134.619 218.21 135.209 212.14C136.069 203.34 141.769 201.59 149.859 202.04C155.459 202.35 158.859 204.96 163.349 207.97C168.989 211.74 178.389 214.45 181.399 220.98Z" fill="#606161"/>
<path d="M181.399 220.98C182.357 223.454 182.67 226.132 182.309 228.76C181.539 238.4 177.909 247.55 174.309 256.54C173.903 257.69 173.345 258.78 172.649 259.78C170.109 263.03 165.319 263.14 161.199 262.95L160.909 244.59C161.013 242.621 160.703 240.652 159.999 238.81C159.004 236.934 157.468 235.401 155.589 234.41C151.369 231.93 146.339 230.99 142.309 228.21C137.239 224.71 134.619 218.21 135.209 212.14C136.069 203.34 141.769 201.59 149.859 202.04C155.459 202.35 158.859 204.96 163.349 207.97C168.989 211.74 178.389 214.45 181.399 220.98Z" fill="url(#paint6_linear_1137_1961)"/>
<path d="M122.409 229.97C128.409 240.97 139.639 250.91 148.019 260.28C149.121 261.399 150.061 262.669 150.809 264.05C151.879 266.27 152.559 276.39 152.579 278.86L152.809 306.98C152.764 307.774 152.862 308.57 153.099 309.33C153.392 309.978 153.83 310.55 154.38 311.001C154.93 311.452 155.576 311.77 156.269 311.93C159.949 312.93 163.929 310.77 166.099 307.62C168.269 304.47 168.979 300.62 169.529 296.8C171.697 280.921 172.032 264.846 170.529 248.89C170.36 245.143 169.66 241.44 168.449 237.89C166.926 234.403 164.942 231.138 162.549 228.18L149.139 209.96C147.179 207.011 144.801 204.364 142.079 202.1C136.369 197.8 122.189 196.34 118.369 204.1C113.929 213.15 118.119 222.13 122.409 229.97Z" fill="#606161"/>
<path d="M122.409 229.97C128.409 240.97 139.639 250.91 148.019 260.28C149.121 261.399 150.061 262.669 150.809 264.05C151.879 266.27 152.559 276.39 152.579 278.86L152.809 306.98C152.764 307.774 152.862 308.57 153.099 309.33C153.392 309.978 153.83 310.55 154.38 311.001C154.93 311.452 155.576 311.77 156.269 311.93C159.949 312.93 163.929 310.77 166.099 307.62C168.269 304.47 168.979 300.62 169.529 296.8C171.697 280.921 172.032 264.846 170.529 248.89C170.36 245.143 169.66 241.44 168.449 237.89C166.926 234.403 164.942 231.138 162.549 228.18L149.139 209.96C147.179 207.011 144.801 204.364 142.079 202.1C136.369 197.8 122.189 196.34 118.369 204.1C113.929 213.15 118.119 222.13 122.409 229.97Z" fill="url(#paint7_linear_1137_1961)"/>
<path d="M87.1891 227.76C87.1606 229.12 87.5478 230.456 88.2991 231.59C89.7291 233.53 92.4091 234.02 94.8291 234.14C96.7922 234.382 98.7838 234.07 100.579 233.24C102.299 232.29 103.579 230.24 102.919 228.33C102.259 226.42 100.149 225.47 99.3991 223.64C99.0519 222.472 98.9834 221.239 99.1991 220.04C100.129 209.75 87.0191 220.94 87.1891 227.76Z" fill="#F4A982"/>
<path d="M135.169 130.17C130.029 129.11 124.069 129.29 120.299 132.95C117.389 135.78 116.449 140.04 115.789 144.05C114.12 154.909 113.118 165.859 112.789 176.84C112.589 182.02 112.469 187.25 113.589 192.31C114.709 197.37 117.169 202.31 121.299 205.42C126.299 209.22 132.959 209.87 139.239 210.31C143.679 210.62 148.749 210.67 151.839 207.46C153.074 206.041 153.976 204.363 154.479 202.55C156.059 197.64 156.419 192.43 156.689 187.29C157.089 179.357 157.276 171.417 157.249 163.47C157.249 156.21 156.939 148.47 153.619 141.86C150.079 134.8 142.639 131.71 135.169 130.17Z" fill="white"/>
<path d="M141.009 180.33C141.356 184.585 141.222 188.865 140.609 193.09C140.169 196.09 139.499 199.09 139.919 202.02C140.339 204.95 142.159 208.02 145.059 208.77C147.959 209.52 151.229 207.67 152.899 205.07C154.569 202.47 155.029 199.29 155.389 196.21C156.481 187.806 156.726 179.313 156.119 170.86C155.975 168.102 155.429 165.38 154.499 162.78C153.069 159.19 143.779 147.12 139.119 152.62C136.869 155.28 138.459 162.32 138.869 165.43C139.529 170.45 140.599 175.33 141.009 180.33Z" fill="url(#paint8_linear_1137_1961)"/>
<path d="M143.609 137.39C142.208 139.274 141.501 141.584 141.609 143.93C141.609 150.67 145.149 156.83 147.659 163.09C149.309 167.2 150.589 171.57 153.329 175.09C155.723 178.119 159.059 180.263 162.809 181.18C164.112 181.539 165.478 181.608 166.809 181.38C169.209 180.88 171.089 179.05 172.739 177.23C178.739 170.59 183.799 162.58 184.529 153.66C184.622 152.97 184.567 152.268 184.369 151.6C183.929 150.681 183.235 149.907 182.369 149.37C180.369 147.87 177.939 146.29 175.559 147.04C174.267 147.592 173.142 148.475 172.299 149.6L165.499 157.21C163.186 151.025 160.116 145.15 156.359 139.72C153.589 135.58 147.479 132.71 143.609 137.39Z" fill="white"/>
<path d="M127.039 130.19C126.952 130.419 126.952 130.671 127.039 130.9C127.161 131.066 127.327 131.194 127.519 131.27C132.655 133.74 138.261 135.083 143.959 135.21C143.465 134.117 143.08 132.978 142.809 131.81C142.639 131.07 142.739 128.81 142.279 128.31C141.559 127.53 137.959 127.7 136.809 127.56L131.249 126.87C128.169 126.45 127.759 127.11 127.039 130.19Z" fill="white"/>
<path d="M127.039 130.19C126.952 130.419 126.952 130.671 127.039 130.9C127.161 131.066 127.327 131.194 127.519 131.27C132.655 133.74 138.261 135.083 143.959 135.21C143.465 134.117 143.08 132.978 142.809 131.81C142.639 131.07 142.739 128.81 142.279 128.31C141.559 127.53 137.959 127.7 136.809 127.56L131.249 126.87C128.169 126.45 127.759 127.11 127.039 130.19Z" fill="url(#paint9_linear_1137_1961)"/>
<path d="M138.999 112.45C138.998 112.342 138.963 112.237 138.899 112.15C138.823 112.079 138.724 112.036 138.619 112.03C138.472 112.027 138.327 112.067 138.203 112.145C138.079 112.223 137.98 112.336 137.919 112.47C137.8 112.744 137.749 113.042 137.769 113.34C137.764 113.545 137.784 113.75 137.829 113.95C137.957 114.353 138.157 114.729 138.419 115.06C138.528 115.269 138.715 115.427 138.939 115.5C139.519 115.61 140.189 114.79 139.789 114.3C139.579 114.05 139.279 113.91 139.129 113.61C139.021 113.233 138.977 112.841 138.999 112.45Z" fill="url(#paint10_linear_1137_1961)"/>
<path opacity="0.24" d="M114.219 350.73C114.221 355.63 113.199 360.477 111.219 364.96C108.695 370.969 104.597 376.186 99.3564 380.061C94.1158 383.936 87.9268 386.326 81.4418 386.978C74.9568 387.631 68.4159 386.521 62.5085 383.768C56.6011 381.014 51.5459 376.717 47.8758 371.331C44.2057 365.945 42.0565 359.669 41.6548 353.163C41.2531 346.658 42.6138 340.165 45.5933 334.368C48.5729 328.571 53.0611 323.685 58.5848 320.226C64.1085 316.766 70.4633 314.86 76.9793 314.71H77.8793C82.6309 314.688 87.3403 315.602 91.7385 317.4C96.1367 319.198 100.138 321.846 103.512 325.191C106.887 328.536 109.57 332.513 111.407 336.895C113.244 341.277 114.2 345.978 114.219 350.73Z" fill="#4DD783"/>
<path opacity="0.4" d="M114.219 350.73C114.221 355.63 113.199 360.477 111.219 364.96L76.9795 350.73V314.73H77.8795C82.6294 314.708 87.3372 315.621 91.7342 317.418C96.1311 319.215 100.131 321.861 103.505 325.204C106.88 328.546 109.563 332.521 111.401 336.901C113.24 341.281 114.197 345.98 114.219 350.73Z" fill="#4DD783"/>
<path d="M310.039 146.11H249.309V97.3002C249.335 97.015 249.467 96.75 249.679 96.5571C249.891 96.3642 250.167 96.2573 250.454 96.2573C250.74 96.2573 251.016 96.3642 251.228 96.5571C251.44 96.75 251.572 97.015 251.599 97.3002V143.82H310.039C310.198 143.805 310.359 143.824 310.51 143.875C310.662 143.925 310.802 144.007 310.92 144.115C311.038 144.223 311.133 144.354 311.198 144.5C311.262 144.647 311.296 144.805 311.296 144.965C311.296 145.125 311.262 145.284 311.198 145.43C311.133 145.576 311.038 145.708 310.92 145.815C310.802 145.923 310.662 146.005 310.51 146.056C310.359 146.107 310.198 146.125 310.039 146.11Z" fill="#4DD783"/>
<path d="M250.239 139.24C250.063 139.24 249.889 139.2 249.731 139.122C249.574 139.044 249.436 138.93 249.329 138.79C249.148 138.546 249.069 138.241 249.11 137.94C249.151 137.639 249.309 137.366 249.549 137.18L270.039 121.71H284.479L303.079 109.45C303.333 109.283 303.642 109.223 303.939 109.284C304.236 109.345 304.497 109.522 304.664 109.775C304.831 110.028 304.891 110.337 304.83 110.635C304.769 110.932 304.593 111.193 304.339 111.36L285.149 124.01H270.809L250.929 139.01C250.731 139.161 250.489 139.242 250.239 139.24Z" fill="#4DD783"/>
<path d="M299.809 108.16L306.319 107.94L304.579 114.53L299.809 108.16Z" fill="#4DD783"/>
<path d="M91.5295 217.62C91.2037 217.809 90.9287 218.074 90.7284 218.393C90.528 218.712 90.4082 219.075 90.3795 219.45C90.364 219.659 90.4204 219.867 90.5395 220.04C90.8595 220.44 91.4795 220.3 91.9595 220.15C93.0976 219.754 94.3037 219.591 95.5061 219.67C96.7086 219.749 97.8829 220.069 98.9595 220.61C99.116 220.728 99.3038 220.798 99.4995 220.81C99.9495 220.81 100.129 220.21 100.139 219.75C100.149 219.109 100.089 218.468 99.9595 217.84C99.9093 217.462 99.7844 217.097 99.5922 216.768C99.3999 216.438 99.144 216.15 98.8395 215.92C98.3676 215.726 97.8587 215.637 97.3489 215.662C96.8391 215.686 96.3408 215.822 95.8895 216.06C94.3861 216.428 92.925 216.951 91.5295 217.62Z" fill="white"/>
<defs>
<linearGradient id="paint0_linear_1137_1961" x1="99.8889" y1="175.36" x2="298.139" y2="207.33" gradientUnits="userSpaceOnUse">
<stop stop-color="#010101" stop-opacity="0"/>
<stop offset="0.95" stop-color="#010101"/>
</linearGradient>
<linearGradient id="paint1_linear_1137_1961" x1="73.2489" y1="255.77" x2="118.509" y2="255.77" gradientUnits="userSpaceOnUse">
<stop stop-color="#010101" stop-opacity="0"/>
<stop offset="0.95" stop-color="#010101"/>
</linearGradient>
<linearGradient id="paint2_linear_1137_1961" x1="197.299" y1="210.82" x2="-55.0605" y2="242.31" gradientUnits="userSpaceOnUse">
<stop stop-color="#4DD783"/>
<stop offset="0.95" stop-color="#010101"/>
</linearGradient>
<linearGradient id="paint3_linear_1137_1961" x1="168.949" y1="310.18" x2="167.359" y2="324.27" gradientUnits="userSpaceOnUse">
<stop stop-color="#010101" stop-opacity="0"/>
<stop offset="0.95" stop-color="#010101"/>
</linearGradient>
<linearGradient id="paint4_linear_1137_1961" x1="178.079" y1="262.36" x2="170.959" y2="270.39" gradientUnits="userSpaceOnUse">
<stop stop-color="#010101" stop-opacity="0"/>
<stop offset="0.95" stop-color="#010101"/>
</linearGradient>
<linearGradient id="paint5_linear_1137_1961" x1="114.609" y1="99.2302" x2="153.719" y2="112.76" gradientUnits="userSpaceOnUse">
<stop stop-color="#010101" stop-opacity="0"/>
<stop offset="0.95" stop-color="#010101"/>
</linearGradient>
<linearGradient id="paint6_linear_1137_1961" x1="179.079" y1="228.8" x2="150.789" y2="233.23" gradientUnits="userSpaceOnUse">
<stop stop-color="#010101" stop-opacity="0"/>
<stop offset="0.95" stop-color="#010101"/>
</linearGradient>
<linearGradient id="paint7_linear_1137_1961" x1="155.579" y1="234.07" x2="119.689" y2="292.69" gradientUnits="userSpaceOnUse">
<stop stop-color="#010101" stop-opacity="0"/>
<stop offset="0.95" stop-color="#010101"/>
</linearGradient>
<linearGradient id="paint8_linear_1137_1961" x1="146.419" y1="179.69" x2="273.829" y2="156.08" gradientUnits="userSpaceOnUse">
<stop stop-color="#010101" stop-opacity="0"/>
<stop offset="0.95" stop-color="#010101"/>
</linearGradient>
<linearGradient id="paint9_linear_1137_1961" x1="136.819" y1="129.28" x2="115.169" y2="180.44" gradientUnits="userSpaceOnUse">
<stop stop-color="#010101" stop-opacity="0"/>
<stop offset="0.95" stop-color="#010101"/>
</linearGradient>
<linearGradient id="paint10_linear_1137_1961" x1="138.539" y1="113.81" x2="145.269" y2="113.2" gradientUnits="userSpaceOnUse">
<stop stop-color="#010101" stop-opacity="0"/>
<stop offset="0.95" stop-color="#010101"/>
</linearGradient>
</defs>
</svg>
